<mxfile host="app.diagrams.net" modified="2023-05-03T14:42:02.922Z" agent="Mozilla/5.0 (Macintosh; Intel Mac OS X 10_15_7) AppleWebKit/605.1.15 (KHTML, like Gecko) Version/16.4 Safari/605.1.15" etag="CQYqgxH9c60G1Jc0SL0H" version="21.2.1" type="device">
  <diagram name="Page-1" id="cPZaBPU9ChipEOjV1w3C">
    <mxGraphModel dx="1393" dy="959" grid="1" gridSize="10" guides="1" tooltips="1" connect="1" arrows="1" fold="1" page="1" pageScale="1" pageWidth="1169" pageHeight="827" math="0" shadow="0">
      <root>
        <mxCell id="0" />
        <mxCell id="1" parent="0" />
        <mxCell id="VVqKtF_Fqne7itBjFoDa-1" value="Feature SPM&lt;br&gt;" style="shape=cube;whiteSpace=wrap;html=1;boundedLbl=1;backgroundOutline=1;darkOpacity=0.05;darkOpacity2=0.1;verticalAlign=top;" parent="1" vertex="1">
          <mxGeometry x="510" y="140" width="570" height="330" as="geometry" />
        </mxCell>
        <mxCell id="VVqKtF_Fqne7itBjFoDa-2" value="FeatureBoundaries" style="rounded=1;whiteSpace=wrap;html=1;verticalAlign=top;" parent="1" vertex="1">
          <mxGeometry x="490" y="200" width="120" height="145" as="geometry" />
        </mxCell>
        <mxCell id="VVqKtF_Fqne7itBjFoDa-28" style="edgeStyle=orthogonalEdgeStyle;rounded=0;orthogonalLoop=1;jettySize=auto;html=1;exitX=0.5;exitY=0;exitDx=0;exitDy=0;entryX=1;entryY=0.5;entryDx=0;entryDy=0;" parent="1" source="VVqKtF_Fqne7itBjFoDa-3" target="VVqKtF_Fqne7itBjFoDa-2" edge="1">
          <mxGeometry relative="1" as="geometry">
            <Array as="points">
              <mxPoint x="970" y="273" />
              <mxPoint x="760" y="273" />
            </Array>
          </mxGeometry>
        </mxCell>
        <mxCell id="VVqKtF_Fqne7itBjFoDa-3" value="SubView1" style="rounded=1;whiteSpace=wrap;html=1;" parent="1" vertex="1">
          <mxGeometry x="910" y="285" width="120" height="60" as="geometry" />
        </mxCell>
        <mxCell id="VVqKtF_Fqne7itBjFoDa-29" style="edgeStyle=orthogonalEdgeStyle;rounded=0;orthogonalLoop=1;jettySize=auto;html=1;exitX=1;exitY=0.5;exitDx=0;exitDy=0;entryX=1;entryY=0.25;entryDx=0;entryDy=0;" parent="1" source="VVqKtF_Fqne7itBjFoDa-4" target="VVqKtF_Fqne7itBjFoDa-2" edge="1">
          <mxGeometry relative="1" as="geometry" />
        </mxCell>
        <mxCell id="VVqKtF_Fqne7itBjFoDa-4" value="SubView2" style="rounded=1;whiteSpace=wrap;html=1;" parent="1" vertex="1">
          <mxGeometry x="910" y="400" width="120" height="60" as="geometry" />
        </mxCell>
        <mxCell id="VVqKtF_Fqne7itBjFoDa-7" style="edgeStyle=orthogonalEdgeStyle;rounded=0;orthogonalLoop=1;jettySize=auto;html=1;exitX=1;exitY=0.5;exitDx=0;exitDy=0;entryX=0;entryY=0.5;entryDx=0;entryDy=0;" parent="1" source="VVqKtF_Fqne7itBjFoDa-5" target="VVqKtF_Fqne7itBjFoDa-6" edge="1">
          <mxGeometry relative="1" as="geometry" />
        </mxCell>
        <mxCell id="VVqKtF_Fqne7itBjFoDa-8" style="edgeStyle=orthogonalEdgeStyle;rounded=0;orthogonalLoop=1;jettySize=auto;html=1;exitX=0.5;exitY=0;exitDx=0;exitDy=0;entryX=0.5;entryY=1;entryDx=0;entryDy=0;" parent="1" source="VVqKtF_Fqne7itBjFoDa-5" target="VVqKtF_Fqne7itBjFoDa-2" edge="1">
          <mxGeometry relative="1" as="geometry" />
        </mxCell>
        <mxCell id="VVqKtF_Fqne7itBjFoDa-5" value="FeatureConfigurator" style="rounded=1;whiteSpace=wrap;html=1;" parent="1" vertex="1">
          <mxGeometry x="490" y="360" width="120" height="60" as="geometry" />
        </mxCell>
        <mxCell id="VVqKtF_Fqne7itBjFoDa-12" style="edgeStyle=orthogonalEdgeStyle;rounded=0;orthogonalLoop=1;jettySize=auto;html=1;exitX=0.75;exitY=0;exitDx=0;exitDy=0;entryX=0;entryY=0.75;entryDx=0;entryDy=0;" parent="1" source="VVqKtF_Fqne7itBjFoDa-6" target="VVqKtF_Fqne7itBjFoDa-3" edge="1">
          <mxGeometry relative="1" as="geometry" />
        </mxCell>
        <mxCell id="VVqKtF_Fqne7itBjFoDa-14" style="edgeStyle=orthogonalEdgeStyle;rounded=0;orthogonalLoop=1;jettySize=auto;html=1;exitX=0.75;exitY=1;exitDx=0;exitDy=0;entryX=0;entryY=0.75;entryDx=0;entryDy=0;" parent="1" source="VVqKtF_Fqne7itBjFoDa-6" target="VVqKtF_Fqne7itBjFoDa-4" edge="1">
          <mxGeometry relative="1" as="geometry" />
        </mxCell>
        <mxCell id="VVqKtF_Fqne7itBjFoDa-27" style="edgeStyle=orthogonalEdgeStyle;rounded=0;orthogonalLoop=1;jettySize=auto;html=1;exitX=0.25;exitY=0;exitDx=0;exitDy=0;entryX=1;entryY=0.75;entryDx=0;entryDy=0;" parent="1" source="VVqKtF_Fqne7itBjFoDa-6" target="VVqKtF_Fqne7itBjFoDa-2" edge="1">
          <mxGeometry relative="1" as="geometry" />
        </mxCell>
        <mxCell id="VVqKtF_Fqne7itBjFoDa-6" value="FeatureView" style="rounded=1;whiteSpace=wrap;html=1;" parent="1" vertex="1">
          <mxGeometry x="630" y="360" width="180" height="60" as="geometry" />
        </mxCell>
        <mxCell id="VVqKtF_Fqne7itBjFoDa-15" value="App (or other client SPM)" style="shape=cube;whiteSpace=wrap;html=1;boundedLbl=1;backgroundOutline=1;darkOpacity=0.05;darkOpacity2=0.1;verticalAlign=top;" parent="1" vertex="1">
          <mxGeometry x="20" y="440" width="340" height="340" as="geometry" />
        </mxCell>
        <mxCell id="VVqKtF_Fqne7itBjFoDa-18" value="Presenting" style="rounded=0;whiteSpace=wrap;html=1;" parent="1" vertex="1">
          <mxGeometry x="510" y="250" width="80" height="23" as="geometry" />
        </mxCell>
        <mxCell id="VVqKtF_Fqne7itBjFoDa-19" value="Interacting" style="rounded=0;whiteSpace=wrap;html=1;" parent="1" vertex="1">
          <mxGeometry x="510" y="310" width="80" height="23" as="geometry" />
        </mxCell>
        <mxCell id="VVqKtF_Fqne7itBjFoDa-20" value="ViewState" style="rounded=0;whiteSpace=wrap;html=1;" parent="1" vertex="1">
          <mxGeometry x="510" y="280" width="80" height="23" as="geometry" />
        </mxCell>
        <mxCell id="VVqKtF_Fqne7itBjFoDa-22" style="edgeStyle=orthogonalEdgeStyle;rounded=0;orthogonalLoop=1;jettySize=auto;html=1;exitX=1;exitY=0.25;exitDx=0;exitDy=0;entryX=0;entryY=0.5;entryDx=0;entryDy=0;" parent="1" source="VVqKtF_Fqne7itBjFoDa-21" target="VVqKtF_Fqne7itBjFoDa-2" edge="1">
          <mxGeometry relative="1" as="geometry" />
        </mxCell>
        <mxCell id="VVqKtF_Fqne7itBjFoDa-23" style="edgeStyle=orthogonalEdgeStyle;rounded=0;orthogonalLoop=1;jettySize=auto;html=1;exitX=1;exitY=0.5;exitDx=0;exitDy=0;entryX=0;entryY=0.5;entryDx=0;entryDy=0;" parent="1" source="VVqKtF_Fqne7itBjFoDa-21" target="VVqKtF_Fqne7itBjFoDa-5" edge="1">
          <mxGeometry relative="1" as="geometry">
            <Array as="points">
              <mxPoint x="440" y="630" />
              <mxPoint x="440" y="390" />
            </Array>
          </mxGeometry>
        </mxCell>
        <mxCell id="VVqKtF_Fqne7itBjFoDa-21" value="import UIKit&lt;br&gt;&lt;br&gt;import FeatureBoundaries&lt;br&gt;import FeatureConfigurator&lt;br&gt;&lt;br&gt;let featureViewController:UIViewController &amp;nbsp;= &lt;span style=&quot;white-space: pre;&quot;&gt; &lt;span style=&quot;white-space: pre;&quot;&gt; &lt;/span&gt;&lt;/span&gt;FeatureConfigurator().configueFeature" style="whiteSpace=wrap;html=1;aspect=fixed;align=left;verticalAlign=top;" parent="1" vertex="1">
          <mxGeometry x="60" y="490" width="280" height="280" as="geometry" />
        </mxCell>
        <mxCell id="VVqKtF_Fqne7itBjFoDa-25" value="Dans une approche Clean Architecture,&lt;br&gt;Le client connait rien d&#39;autre que les abstractions et le configurator.&lt;br&gt;Le configurator construit des objects concrets mais les renvoie sous forme d&#39;abstraction&lt;br&gt;(ou bien en cachant les détails comme ici :&lt;br&gt;On construit un FeatureViewControllermais on le renvoie sous forme de UIViewController)" style="text;html=1;align=left;verticalAlign=middle;resizable=0;points=[];autosize=1;strokeColor=none;fillColor=none;" parent="1" vertex="1">
          <mxGeometry x="450" y="510" width="500" height="80" as="geometry" />
        </mxCell>
        <mxCell id="VVqKtF_Fqne7itBjFoDa-35" value="" style="group" parent="1" vertex="1" connectable="0">
          <mxGeometry x="810" y="660" width="340" height="160" as="geometry" />
        </mxCell>
        <mxCell id="VVqKtF_Fqne7itBjFoDa-31" value="SPM Package (or App)" style="shape=cube;whiteSpace=wrap;html=1;boundedLbl=1;backgroundOutline=1;darkOpacity=0.05;darkOpacity2=0.1;verticalAlign=top;" parent="VVqKtF_Fqne7itBjFoDa-35" vertex="1">
          <mxGeometry width="340" height="160" as="geometry" />
        </mxCell>
        <mxCell id="VVqKtF_Fqne7itBjFoDa-32" value="Internal Target" style="rounded=1;whiteSpace=wrap;html=1;verticalAlign=top;" parent="VVqKtF_Fqne7itBjFoDa-35" vertex="1">
          <mxGeometry x="140" y="50" width="170" height="90" as="geometry" />
        </mxCell>
        <mxCell id="VVqKtF_Fqne7itBjFoDa-34" value="File.swift" style="whiteSpace=wrap;html=1;aspect=fixed;" parent="VVqKtF_Fqne7itBjFoDa-35" vertex="1">
          <mxGeometry x="200" y="80" width="50" height="50" as="geometry" />
        </mxCell>
        <mxCell id="VVqKtF_Fqne7itBjFoDa-37" value="Exposed Target" style="rounded=1;whiteSpace=wrap;html=1;verticalAlign=top;" parent="VVqKtF_Fqne7itBjFoDa-35" vertex="1">
          <mxGeometry x="-40" y="50" width="170" height="90" as="geometry" />
        </mxCell>
        <mxCell id="VVqKtF_Fqne7itBjFoDa-36" value="&lt;b&gt;&lt;i&gt;Légende&lt;/i&gt;&lt;/b&gt;" style="text;html=1;align=center;verticalAlign=middle;resizable=0;points=[];autosize=1;strokeColor=none;fillColor=none;" parent="1" vertex="1">
          <mxGeometry x="930" y="630" width="70" height="30" as="geometry" />
        </mxCell>
        <mxCell id="VVqKtF_Fqne7itBjFoDa-38" value="&lt;b&gt;&lt;font style=&quot;font-size: 17px;&quot;&gt;&lt;u&gt;Les 3 piliers d&#39;un Package Clean&lt;/u&gt;&lt;/font&gt;&lt;/b&gt;" style="text;html=1;align=center;verticalAlign=middle;resizable=0;points=[];autosize=1;strokeColor=none;fillColor=none;" parent="1" vertex="1">
          <mxGeometry x="20" width="290" height="30" as="geometry" />
        </mxCell>
        <mxCell id="VVqKtF_Fqne7itBjFoDa-39" value="&lt;ul&gt;&lt;li style=&quot;text-align: left;&quot;&gt;Les abstractions et leur données DTOs, exposés dans une target &lt;i&gt;&lt;b&gt;Boundaries&lt;/b&gt;&lt;/i&gt;&lt;br&gt;&lt;/li&gt;&lt;li style=&quot;text-align: left;&quot;&gt;Les objet concrets qui implémentent les abstractions (non exposés)&lt;/li&gt;&lt;li style=&quot;text-align: left;&quot;&gt;Le &lt;b&gt;Configurator&lt;/b&gt; qui crée les concrets et les renvoie sous des types abstrais (Dedign Pattern AbstractFactory)&lt;/li&gt;&lt;/ul&gt;" style="text;html=1;align=center;verticalAlign=middle;resizable=0;points=[];autosize=1;strokeColor=none;fillColor=none;" parent="1" vertex="1">
          <mxGeometry y="10" width="650" height="80" as="geometry" />
        </mxCell>
      </root>
    </mxGraphModel>
  </diagram>
</mxfile>
